<mxfile host="Electron" modified="2023-08-21T11:08:11.081Z" agent="5.0 (Windows NT 10.0; Win64; x64) AppleWebKit/537.36 (KHTML, like Gecko) draw.io/20.3.0 Chrome/104.0.5112.114 Electron/20.1.3 Safari/537.36" etag="JXrEBufwpRNsOomi756U" compressed="false" version="20.3.0" type="device">
  <diagram name="PA007A" id="ir_UwXEa_cwXEH2wF1wZ">
    <mxGraphModel dx="981" dy="674" grid="1" gridSize="2" guides="1" tooltips="1" connect="1" arrows="1" fold="1" page="1" pageScale="1" pageWidth="1169" pageHeight="827" math="0" shadow="0">
      <root>
        <mxCell id="BEWwOQczyJ-714RrXKeb-0" />
        <mxCell id="BEWwOQczyJ-714RrXKeb-124" value="Connection" style="" parent="BEWwOQczyJ-714RrXKeb-0" />
        <object label="Connection" PipingConnector="N" LabelConnector="N" SignalConnector="N" Direction="270" AuxiliaryConnector="Y" id="BEWwOQczyJ-714RrXKeb-125">
          <mxCell style="vsdxID=1407;fillColor=none;gradientColor=none;shape=stencil(rVFbDsIgEDwNnyQU4glqvcfGblsilmZBS28vZGMsxg9j/JvZmX1kR5g2TLCg0CpE8hdcbR8nYY5CaztPSDZmJEwnTDt4wpH8be6ZL1CcBV39vUxI3KdKh1YbswPTEzuBzlmiVGmKau9zUKM+jlJJQrJBko8QrZ+rrQ5oRJnXyMHBWElhRVx25ebnw/5zVvPFWRm83jxY5zilvf4eSy5xpKZ7AA==);strokeColor=#00FF00;strokeWidth=1;points=[[0.5,0.5,0,0,0]];labelBackgroundColor=none;rounded=0;html=1;whiteSpace=wrap;aspect=fixed;noLabel=1;snapToPoint=1;container=0;fontSize=16;" parent="BEWwOQczyJ-714RrXKeb-124" vertex="1">
            <mxGeometry x="378" y="378" width="12" height="12" as="geometry" />
          </mxCell>
        </object>
        <object label="Connection" PipingConnector="N" LabelConnector="N" SignalConnector="Y" Direction="90" id="BEWwOQczyJ-714RrXKeb-126">
          <mxCell style="vsdxID=1407;fillColor=none;gradientColor=none;shape=stencil(rVFbDsIgEDwNnyQU4glqvcfGblsilmZBS28vZGMsxg9j/JvZmX1kR5g2TLCg0CpE8hdcbR8nYY5CaztPSDZmJEwnTDt4wpH8be6ZL1CcBV39vUxI3KdKh1YbswPTEzuBzlmiVGmKau9zUKM+jlJJQrJBko8QrZ+rrQ5oRJnXyMHBWElhRVx25ebnw/5zVvPFWRm83jxY5zilvf4eSy5xpKZ7AA==);strokeColor=#00FF00;strokeWidth=1;points=[[0.5,0.5,0,0,0]];labelBackgroundColor=none;rounded=0;html=1;whiteSpace=wrap;aspect=fixed;noLabel=1;snapToPoint=1;container=0;fontSize=16;" parent="BEWwOQczyJ-714RrXKeb-124" vertex="1">
            <mxGeometry x="378" y="202" width="12" height="12" as="geometry" />
          </mxCell>
        </object>
        <mxCell id="BEWwOQczyJ-714RrXKeb-131" value="Label" style="" parent="BEWwOQczyJ-714RrXKeb-0" />
        <object label="%LabelLines%&amp;nbsp; &amp;nbsp; &amp;nbsp; &amp;nbsp; &amp;nbsp; &amp;nbsp;%LabelIndex%" placeholders="1" LabelLines="1" LabelIndex="A" id="dnt_Vx81_Dw-NQG4vz2W-0">
          <mxCell style="rounded=0;whiteSpace=wrap;html=1;fillColor=none;strokeColor=#FF0000;fontColor=#FF0000;fontSize=10;align=left;" parent="BEWwOQczyJ-714RrXKeb-131" vertex="1">
            <mxGeometry x="288" y="272" width="80" height="16" as="geometry" />
          </mxCell>
        </object>
        <mxCell id="BEWwOQczyJ-714RrXKeb-134" value="Origo" style="locked=1;" parent="BEWwOQczyJ-714RrXKeb-0" />
        <object label="origo" id="BEWwOQczyJ-714RrXKeb-135">
          <mxCell style="vsdxID=1407;fillColor=none;gradientColor=none;shape=stencil(rVFbDsIgEDwNnyQU4glqvcfGblsilmZBS28vZGMsxg9j/JvZmX1kR5g2TLCg0CpE8hdcbR8nYY5CaztPSDZmJEwnTDt4wpH8be6ZL1CcBV39vUxI3KdKh1YbswPTEzuBzlmiVGmKau9zUKM+jlJJQrJBko8QrZ+rrQ5oRJnXyMHBWElhRVx25ebnw/5zVvPFWRm83jxY5zilvf4eSy5xpKZ7AA==);strokeColor=#ff0000;strokeWidth=1;points=[[0.5,0.5,0,0,0]];labelBackgroundColor=none;rounded=0;html=1;whiteSpace=wrap;aspect=fixed;noLabel=1;snapToPoint=1;" parent="BEWwOQczyJ-714RrXKeb-134" vertex="1">
            <mxGeometry x="380.06" y="380.06" width="7.874" height="7.87" as="geometry" />
          </mxCell>
        </object>
        <object label="Symbol" Width="6" Height="11" UoM="mm" id="BEWwOQczyJ-714RrXKeb-136">
          <mxCell style="" parent="BEWwOQczyJ-714RrXKeb-0" />
        </object>
        <mxCell id="BEWwOQczyJ-714RrXKeb-138" value="" style="endArrow=none;html=1;rounded=0;" parent="BEWwOQczyJ-714RrXKeb-136" edge="1">
          <mxGeometry width="50" height="50" relative="1" as="geometry">
            <mxPoint x="384" y="384" as="sourcePoint" />
            <mxPoint x="384" y="272" as="targetPoint" />
          </mxGeometry>
        </mxCell>
        <mxCell id="usJmNED7wF7PS3l4gfnT-4" value="" style="ellipse;whiteSpace=wrap;html=1;fillColor=none;" vertex="1" parent="BEWwOQczyJ-714RrXKeb-136">
          <mxGeometry x="336" y="208" width="96" height="64" as="geometry" />
        </mxCell>
        <mxCell id="usJmNED7wF7PS3l4gfnT-5" value="" style="endArrow=none;html=1;rounded=0;exitX=0;exitY=0.5;exitDx=0;exitDy=0;entryX=1;entryY=0.5;entryDx=0;entryDy=0;" edge="1" parent="BEWwOQczyJ-714RrXKeb-136" source="usJmNED7wF7PS3l4gfnT-4" target="usJmNED7wF7PS3l4gfnT-4">
          <mxGeometry width="50" height="50" relative="1" as="geometry">
            <mxPoint x="336" y="224" as="sourcePoint" />
            <mxPoint x="432" y="224" as="targetPoint" />
          </mxGeometry>
        </mxCell>
      </root>
    </mxGraphModel>
  </diagram>
</mxfile>
